<?xml version="1.0" encoding="UTF-8"?>
<!DOCTYPE svg PUBLIC "-//W3C//DTD SVG 1.1//EN" "http://www.w3.org/Graphics/SVG/1.1/DTD/svg11.dtd">
<!-- Creator: CorelDRAW 2021 (64 Bit) -->
<svg xmlns="http://www.w3.org/2000/svg" xml:space="preserve" width="210mm" height="297mm" version="1.1" style="shape-rendering:geometricPrecision; text-rendering:geometricPrecision; image-rendering:optimizeQuality; fill-rule:evenodd; clip-rule:evenodd"
viewBox="0 0 21000 29700"
 xmlns:xlink="http://www.w3.org/1999/xlink"
 xmlns:xodm="http://www.corel.com/coreldraw/odm/2003">
 <defs>
  <style type="text/css">
   <![CDATA[
    .str0 {stroke:black;stroke-width:282.22;stroke-miterlimit:22.9256}
    .fil0 {fill:none}
    .fil1 {fill:black}
   ]]>
  </style>
 </defs>
 <g id="Camada_x0020_1">
  <metadata id="CorelCorpID_0Corel-Layer"/>
  <path class="fil0 str0" d="M5789.49 16604.13c-62.02,3447.69 1717.4,7084.07 5032.61,7041.26 1842.67,-23.76 3026.68,-1272.09 3705.57,-2251.77 921.52,-1329.83 1191.9,-2935.99 1234.94,-4850.25 -659.98,-493.06 -850.29,-2705.75 -1185.18,-3620.12 -935.31,363.21 -1210.94,1668.04 -2786.42,639.34 -908.55,-593.24 -1485.94,-1386.2 -2255.36,-1893.92 -447.97,243.82 -1545.27,1234.44 -1931.38,1626.86 -778.3,791.03 -853.18,938.73 -1020.26,2457.01l-528.66 -281.28c-41.32,550.07 -27.19,772.92 -265.86,1132.87z"/>
  <path class="fil1" d="M5789.49 16604.13c238.67,-359.95 224.54,-582.8 265.86,-1132.87l528.66 281.28c167.08,-1518.28 241.96,-1665.98 1020.26,-2457.01 386.11,-392.42 1483.41,-1383.04 1931.38,-1626.86 769.42,507.72 1346.81,1300.68 2255.36,1893.92 1575.48,1028.7 1851.11,-276.13 2786.42,-639.34 334.89,914.37 525.2,3127.06 1185.18,3620.12 466.74,-506.92 858.93,-2668.63 923.51,-3539.42 113.14,-1525.39 -442.48,-2494.34 -867.14,-3707.34 -657.09,-1876.9 1774.73,-3691.38 -1099.93,-7083.57 -104.76,132.38 -48.33,26.25 -130.88,244.42l-217.07 850.36c-86.98,312.45 -233.99,696.4 -383.09,1012.98 -250.04,530.95 -706.71,1304.43 -1052.1,1716.87l-729.28 -1800.26c-443.7,915.57 -479.57,2564.3 -1361.03,3039.91 -776.28,418.88 -1177.74,87.28 -2834.25,1709.96 -518.46,-360.72 -849.03,-1075.77 -1395.67,-1368.85 198.92,684.94 375.34,1639.99 -11.33,2309.97 -406.29,-298.96 -699.9,-843.24 -1229.85,-1005.34 949.26,2056.02 -965.06,2119.9 414.99,7681.07z"/>
 </g>
</svg>
